<svg width="1624" height="1594" viewBox="0 0 1624 1594" fill="none" xmlns="http://www.w3.org/2000/svg">
<path fill-rule="evenodd" clip-rule="evenodd" d="M810.595 0.407715L1265.07 682.125H1623.13L1434.08 1593.59H189.045L0 682.125H372.949L810.595 0.407715ZM518.754 682.125H1117.61L812.532 224.51L518.754 682.125ZM150.757 804.823L288.905 1470.89H1334.22L1472.37 804.823H150.757Z" fill="black"/>
<path fill-rule="evenodd" clip-rule="evenodd" d="M1442.58 1172.9H180.551V1050.21H1442.58V1172.9Z" fill="black"/>
<path fill-rule="evenodd" clip-rule="evenodd" d="M435.178 1539.88L330.009 698.53L451.759 683.311L556.928 1524.67L435.178 1539.88Z" fill="black"/>
<path fill-rule="evenodd" clip-rule="evenodd" d="M1187.95 1539.88L1293.12 698.53L1171.37 683.311L1066.2 1524.67L1187.95 1539.88Z" fill="black"/>
<path fill-rule="evenodd" clip-rule="evenodd" d="M750.214 1532.21V796.025H872.911V1532.21H750.214Z" fill="black"/>
</svg>
