<svg id="Layer_5" data-name="Layer 5" xmlns="http://www.w3.org/2000/svg" viewBox="0 0 566.93 113.39"><defs><style>.cls-1{fill:#1d1d1b;}</style></defs><title>logo10-03</title><path class="cls-1" d="M285.57,75H248.23V63.7h26V53.49a10.21,10.21,0,0,0-20.41,0H242.58a21.5,21.5,0,0,1,43,0Z"/><path class="cls-1" d="M198.09,82.91a5.64,5.64,0,0,1-5.65-5.64V53.49A21.52,21.52,0,0,1,213.94,32h21.5V45.57a5.65,5.65,0,0,1-5.65,5.65h0a5.65,5.65,0,0,1-5.65-5.65V43.29h-10.2a10.21,10.21,0,0,0-10.2,10.2V77.27A5.64,5.64,0,0,1,198.09,82.91Z"/><path class="cls-1" d="M332.16,82.91a5.64,5.64,0,0,1-5.65-5.64V53.49a10.2,10.2,0,1,0-20.4,0V77.27a5.65,5.65,0,0,1-11.3,0V53.49a21.5,21.5,0,0,1,43,0V77.27A5.63,5.63,0,0,1,332.16,82.91Z"/><path class="cls-1" d="M109.44,82.91A21.51,21.51,0,0,1,88,61.42V53.49a21.5,21.5,0,0,1,43,0v7.93A21.52,21.52,0,0,1,109.44,82.91Zm0-39.62a10.22,10.22,0,0,0-10.2,10.2v7.93a10.2,10.2,0,1,0,20.4,0V53.49A10.21,10.21,0,0,0,109.44,43.29Z"/><path class="cls-1" d="M248.23,82.92a5.65,5.65,0,0,1-5.65-5.65V53.49a5.65,5.65,0,0,1,11.29,0V77.27A5.64,5.64,0,0,1,248.23,82.92Z"/><path class="cls-1" d="M525.61,82.91a21.51,21.51,0,0,1-21.49-21.49h11.29a10.2,10.2,0,1,0,20.4,0V51.22h-26V39.92h37.35v21.5A21.52,21.52,0,0,1,525.61,82.91Z"/><path class="cls-1" d="M509.76,67.06a5.63,5.63,0,0,1-5.64-5.64V37.64a5.65,5.65,0,0,1,11.29,0V61.42A5.64,5.64,0,0,1,509.76,67.06Z"/><rect class="cls-1" x="300.46" y="63.69" width="31.7" height="11.29"/><path class="cls-1" d="M161.79,82.91a21.52,21.52,0,0,1-21.5-21.49V37.64a5.65,5.65,0,0,1,11.3,0V61.42a10.2,10.2,0,0,0,20.4,0V37.64a5.65,5.65,0,0,1,11.3,0V61.42A21.52,21.52,0,0,1,161.79,82.91Z"/><path class="cls-1" d="M198.17,82.91H177.64A5.64,5.64,0,0,1,172,77.27V61.42a5.65,5.65,0,0,1,11.3,0v10.2h14.88a5.65,5.65,0,1,1,0,11.29Z"/><path class="cls-1" d="M418.93,82.92H378.74V53.49a10.2,10.2,0,1,0-20.4,0V77.27a5.65,5.65,0,0,1-11.3,0V53.49a21.5,21.5,0,0,1,43,0V71.62h28.9a5.65,5.65,0,0,1,0,11.3Z"/><path class="cls-1" d="M421.17,82.92a21.53,21.53,0,0,1-21.5-21.5V37.64a5.65,5.65,0,0,1,11.3,0V61.42a10.2,10.2,0,1,0,20.4,0V37.64a5.65,5.65,0,0,1,11.3,0V61.42A21.53,21.53,0,0,1,421.17,82.92Z"/><path class="cls-1" d="M473.56,82.92H437a5.65,5.65,0,0,1-5.65-5.65V61.42a5.65,5.65,0,0,1,11.3,0v10.2h30.89a5.65,5.65,0,0,1,0,11.3Z"/><path class="cls-1" d="M47.56,82.92H34a5.65,5.65,0,0,1,0-11.29h2.28V53.5a21.5,21.5,0,1,1,43,0V71.62h2.28a5.65,5.65,0,1,1,0,11.29H73.63V77.72L68,77.27V53.5a10.21,10.21,0,1,0-20.41,0Z"/><path class="cls-1" d="M490.05,82.92H474.2a21.53,21.53,0,0,1-21.5-21.5V53.49A21.52,21.52,0,0,1,474.2,32h15.85a5.65,5.65,0,1,1,0,11.29H474.2A10.21,10.21,0,0,0,464,53.49v7.93a10.2,10.2,0,0,0,10.2,10.2h15.85a5.65,5.65,0,0,1,0,11.3Z"/><path class="cls-1" d="M73.62,82.91H41.92a5.65,5.65,0,1,1,0-11.29h31.7a5.65,5.65,0,0,1,0,11.29Z"/><circle class="cls-1" cx="383.28" cy="21.13" r="6.76"/><circle class="cls-1" cx="353.8" cy="21.11" r="6.76"/></svg>