<svg id="Layer_7" data-name="Layer 7" xmlns="http://www.w3.org/2000/svg" viewBox="0 0 96.5 63.5"><defs><style>.cls-1{fill:#1d1d1b;}</style></defs><title>logo11</title><polygon class="cls-1" points="48.2 40.5 51.7 37.49 55.2 34.48 48.2 34.48 41.2 34.48 44.7 37.49 48.2 40.5"/><path class="cls-1" d="M61.07,47.47a1.62,1.62,0,0,1-1.32-.67C58.44,45,54.26,43,48.2,43S38,45,36.65,46.8A1.62,1.62,0,0,1,34,44.92c2.24-3.14,7.81-5.18,14.18-5.18s11.94,2,14.18,5.18a1.62,1.62,0,0,1-1.31,2.55Z"/><path class="cls-1" d="M35.33,48.29a2.46,2.46,0,0,1-1.41-.45,2.39,2.39,0,0,1-1-1.58,2.42,2.42,0,0,1,.41-1.81c2.4-3.36,8.22-5.52,14.85-5.52S60.65,41.09,63,44.45a2.43,2.43,0,0,1-.56,3.39,2.46,2.46,0,0,1-1.41.45,2.42,2.42,0,0,1-2-1c-1-1.4-4.72-3.48-10.89-3.48s-9.89,2.08-10.89,3.48a2.39,2.39,0,0,1-1.58,1A1.81,1.81,0,0,1,35.33,48.29ZM48.2,40.56c-6.12,0-11.42,1.9-13.52,4.84a.77.77,0,0,0-.13.59.8.8,0,0,0,.32.52.77.77,0,0,0,.59.13.78.78,0,0,0,.52-.32c1.48-2.07,5.83-4.17,12.22-4.17s10.74,2.1,12.22,4.17a.81.81,0,0,0,1.11.19.8.8,0,0,0,.18-1.12C59.62,42.46,54.31,40.56,48.2,40.56Z"/><circle class="cls-1" cx="34.48" cy="30.09" r="4.05"/><path class="cls-1" d="M34.48,35.42a5.34,5.34,0,1,1,5.34-5.33A5.34,5.34,0,0,1,34.48,35.42Zm0-8.09a2.76,2.76,0,1,0,2.76,2.76A2.77,2.77,0,0,0,34.48,27.33Z"/><path class="cls-1" d="M75.64,58A1.62,1.62,0,0,1,74,56.4V36.68A25.54,25.54,0,0,0,73.76,33l-.18-1.32,1.26-.43a19.67,19.67,0,0,0,7.42-4.76c5.41-5.41,7.11-12.86,3.71-16.26s-10.85-1.7-16.26,3.71a21.47,21.47,0,0,0-2.37,2.82l-1,1.44L65,17a25.83,25.83,0,0,0-34,.44l-1.3,1.17-1.07-1.39a20.93,20.93,0,0,0-1.89-2.15C23.25,11.67,19,9.63,15.26,9.63a6.64,6.64,0,0,0-4.83,1.77c-1.59,1.59-2.13,4.09-1.54,7a18.61,18.61,0,0,0,5.25,9.21,19.59,19.59,0,0,0,7.3,4.72l1.2.42-.13,1.28a24.39,24.39,0,0,0-.13,2.61V56.4a1.62,1.62,0,0,1-3.23,0V36.68c0-.58,0-1.15.05-1.71a23.44,23.44,0,0,1-7.35-5A21.91,21.91,0,0,1,5.72,19.07c-.81-4,.06-7.58,2.43-10A9.79,9.79,0,0,1,15.26,6.4h0C19.82,6.4,25,8.8,29,12.83c.38.37.75.76,1.1,1.16a29.06,29.06,0,0,1,35.68-.47,24.59,24.59,0,0,1,1.69-1.87c6.87-6.87,16-8.5,20.82-3.71s3.16,14-3.71,20.82a23.36,23.36,0,0,1-7.43,5.07c.09,1,.14,1.9.14,2.85V56.4A1.61,1.61,0,0,1,75.64,58Z"/><path class="cls-1" d="M75.64,59.24A2.84,2.84,0,0,1,72.8,56.4V36.68a24.47,24.47,0,0,0-.25-3.51l-.33-2.33,2.23-.76a18.37,18.37,0,0,0,6.94-4.47C86.25,20.76,88,14,85.1,11.09S75.43,9.94,70.58,14.8a19.79,19.79,0,0,0-2.24,2.65L66.54,20l-2.37-2a24.58,24.58,0,0,0-32.41.42l-2.29,2.06L27.6,18a22.1,22.1,0,0,0-1.78-2c-3.21-3.21-7.15-5.12-10.56-5.12a5.43,5.43,0,0,0-4,1.42C10,13.55,9.58,15.66,10.09,18.2A17.42,17.42,0,0,0,15,26.79a18.44,18.44,0,0,0,6.84,4.43L24,32l-.23,2.23a22.29,22.29,0,0,0-.13,2.49V56.4a2.84,2.84,0,1,1-5.67,0V36.68c0-.31,0-.63,0-.93a25.11,25.11,0,0,1-7-4.95A23.09,23.09,0,0,1,4.52,19.31c-.89-4.46.09-8.39,2.77-11.06a11,11,0,0,1,8-3.08c4.88,0,10.33,2.54,14.57,6.79.13.12.25.25.37.38a30.25,30.25,0,0,1,35.34-.48q.49-.54,1-1.08c7.36-7.35,17.27-9,22.56-3.71s3.65,15.2-3.71,22.56a25.31,25.31,0,0,1-7,5c0,.69.08,1.39.08,2.08V56.4A2.85,2.85,0,0,1,75.64,59.24ZM74.93,32.5l0,.32a27.94,27.94,0,0,1,.27,3.86V56.4a.39.39,0,0,0,.39.39A.4.4,0,0,0,76,56.4V36.68c0-.9,0-1.82-.14-2.73l-.09-.9.84-.35a22.22,22.22,0,0,0,7-4.81c6.39-6.38,8-14.77,3.71-19.09S74.69,6.13,68.3,12.52a22.49,22.49,0,0,0-1.61,1.78l-.75.91L65,14.5A27.79,27.79,0,0,0,30.83,15l-.91.73-.78-.88c-.33-.38-.68-.75-1-1.11-3.8-3.8-8.59-6.07-12.84-6.07A8.56,8.56,0,0,0,9,10C6.94,12.06,6.2,15.2,6.93,18.83a20.61,20.61,0,0,0,5.79,10.24,22.2,22.2,0,0,0,7,4.77l.8.34-.06.86c0,.53,0,1.08,0,1.64V56.4a.39.39,0,1,0,.77,0V36.68a27,27,0,0,1,.14-2.74l0-.31-.29-.1a20.83,20.83,0,0,1-7.76-5,19.84,19.84,0,0,1-5.58-9.84c-.68-3.37,0-6.26,1.88-8.15A7.83,7.83,0,0,1,15.26,8.4c4,0,8.64,2.18,12.29,5.84a23.48,23.48,0,0,1,2,2.28l.25.33.32-.28a27,27,0,0,1,35.64-.46l.33.28.24-.35a22.65,22.65,0,0,1,2.52-3c6-6,14-7.65,18-3.72s2.27,12-3.7,18a20.85,20.85,0,0,1-7.89,5.06Z"/><path class="cls-1" d="M75.64,58h0A1.62,1.62,0,0,1,74,56.49c-.1-1.75-.88-2.53-5.23-2.53s-5.14.78-5.24,2.53A1.61,1.61,0,0,1,61.93,58a1.65,1.65,0,0,1-1.64-1.52c-.1-1.75-.88-2.53-5.23-2.53s-5.14.78-5.24,2.53A1.61,1.61,0,0,1,48.21,58a1.64,1.64,0,0,1-1.63-1.52c-.1-1.75-.88-2.53-5.24-2.53s-5.14.78-5.24,2.53A1.61,1.61,0,0,1,34.49,58a1.64,1.64,0,0,1-1.63-1.52C32.76,54.74,32,54,27.62,54s-5.13.78-5.23,2.53a1.62,1.62,0,0,1-3.23-.09,1.14,1.14,0,0,1,0-.26c.41-5.41,5.83-5.41,8.44-5.41,1.81,0,4.95,0,6.86,1.79,1.91-1.79,5.05-1.79,6.86-1.79s4.95,0,6.86,1.79c1.91-1.79,5-1.79,6.86-1.79s4.95,0,6.86,1.79c1.9-1.79,5-1.79,6.86-1.79,2.61,0,8,0,8.44,5.41a1.14,1.14,0,0,1,0,.26A1.6,1.6,0,0,1,75.64,58Z"/><path class="cls-1" d="M75.64,59.24h0a2.85,2.85,0,0,1-2.83-2.68c-.05-.8-.08-1.38-4-1.38s-4,.58-4,1.38a2.85,2.85,0,0,1-5.69,0c0-.8-.08-1.38-4-1.38s-4,.58-4,1.38a2.86,2.86,0,0,1-5.7,0c0-.8-.08-1.38-4-1.38s-4,.58-4,1.38a2.86,2.86,0,0,1-5.7,0c0-.8-.07-1.38-4-1.38s-4,.58-4,1.38a2.84,2.84,0,0,1-5.68-.16A2.56,2.56,0,0,1,18,56c.53-6.5,7.16-6.5,9.66-6.5,1.68,0,4.64,0,6.86,1.46,2.23-1.46,5.18-1.46,6.86-1.46S46,49.51,48.2,51c2.22-1.46,5.18-1.46,6.86-1.46s4.63,0,6.86,1.46c2.22-1.46,5.18-1.46,6.86-1.46,2.5,0,9.13,0,9.66,6.5a2.38,2.38,0,0,1,0,.39A2.84,2.84,0,0,1,75.64,59.24Zm-6.86-6.51c4,0,6.28.61,6.46,3.69a.38.38,0,0,0,.38.37h0A.38.38,0,0,0,76,56.4a.13.13,0,0,0,0-.06v-.1c-.3-4-3.89-4.28-7.22-4.28-1.67,0-4.47,0-6,1.45l-.83.79-.84-.79C59.53,52,56.73,52,55.06,52s-4.47,0-6,1.45l-.84.79-.84-.79C45.81,52,43,52,41.34,52s-4.47,0-6,1.45l-.84.79-.84-.79C32.09,52,29.29,52,27.62,52c-3.33,0-6.92.33-7.22,4.28v.09a.17.17,0,0,0,0,.07.4.4,0,0,0,.4.39.38.38,0,0,0,.38-.37c.18-3.08,2.51-3.69,6.46-3.69s6.28.61,6.46,3.69a.41.41,0,0,0,.41.37.39.39,0,0,0,.39-.37c.18-3.08,2.5-3.69,6.46-3.69s6.28.61,6.46,3.69a.41.41,0,0,0,.41.37.39.39,0,0,0,.39-.37c.18-3.08,2.5-3.69,6.46-3.69s6.28.61,6.46,3.69a.41.41,0,0,0,.41.37.39.39,0,0,0,.39-.37C62.49,53.34,64.82,52.73,68.78,52.73Z"/></svg>